{"title":"Projeto Thomaz Farkas 2 - Geraldo Sarno - EnciclopÃƒÂ©dia Audiovis","uid":5559095,"size":1141262802,"categoryP":"video","categoryS":"movies","magnet":"?xt=urn:btih:ee9e2da119aa78f434245bcd7777968257426b1d&amp;dn=Projeto+Thomaz+Farkas+2+-+Geraldo+Sarno+-+Enciclop%C3%83%C2%A9dia+Audiovis&amp;tr=udp%3A%2F%2Ftracker.openbittorrent.com%3A80&amp;tr=udp%3A%2F%2Fopen.demonii.com%3A1337&amp;tr=udp%3A%2F%2Ftracker.coppersurfer.tk%3A6969&amp;tr=udp%3A%2F%2Fexodus.desync.com%3A6969","seeders":1,"leechers":0,"uploader":"mfccorrea","files":8,"time":1273771186,"description":"Projeto Thomaz Farkas 2 - Geraldo Sarno - EnciclopÃƒÂ©dia Audiovisual da Cultura Popular\n\nProject Thomaz Farkas is a collection of 39 documentaries produced by Thomas Farkas  in the 1960s and 1970s, featuring various cultural events of Brazil linked to the specific reality of each region. The documentaries were organized in a box containing seven discs, and include a short interview with the participation of renowned photographer, producer and documentary filmmaker, exposing a broad universe of Brazilian culture.\n\nThe Disc 2 contains the following documentaries by Geraldo Sarno:\n\nA Cantoria (1970)\nCasa de Farinha (1970)\nJornal do SertÃƒÂ£o (1970)\nO Engenho (1970)\nOs ImaginÃƒÂ¡rios (1970)\nPadre CÃƒÂ­cero O Patriarca de Juazeiro (1972)\nVitalino - LampiÃƒÂ£o (1969)\n\nAll films have Portuguese audio, and no subtitles. There's a 300 dpi scan of the DVD cover included.\n\n   General\n      Complete name : Projeto Thomaz Farkas - Geraldo Sarno - EnciclopÃƒÂ©dia Audiovisual da Cultura Popular.avi\n      Format : AVI\n      Format/Info : Audio Video Interleave\n      File size : 1.06 GiB\n      Duration : 1h 18mn\n      Overall bit rate : 1 945 Kbps\n      Writing application : VirtualDubMod 1.5.10.2 (build 2540/release)\n      Writing library : VirtualDubMod build 2540/release\n   Video #0\n      ID : 0\n      Format : MPEG-4 Visual\n      Format profile : AdvancedSimple@L5\n      Format settings, BVOP : Yes\n      Format settings, QPel : No\n      Format settings, GMC : No warppoints\n      Format settings, Matrix : Default (MPEG)\n      Muxing mode : Packed bitstream\n      Codec ID : XVID\n      Codec ID/Hint : XviD\n      Duration : 1h 18mn\n      Bit rate : 1 711 Kbps\n      Width : 624 pixels\n      Height : 464 pixels\n      Display aspect ratio : 4:3\n      Frame rate : 23.976 fps\n      Resolution : 24 bits\n      Colorimetry : 4:2:0\n      Scan type : Progressive\n      Bits/(Pixel*Frame) : 0.247\n      Stream size : 956 MiB (88%)\n      Writing library : XviD 1.2.0.dev47 (UTC 2006-11-01)\n   Audio #1\n      ID : 1\n      Format : AC-3\n      Format/Info : Audio Coding 3\n      Codec ID : 2000\n      Duration : 1h 18mn\n      Bit rate mode : Constant\n      Bit rate : 224 Kbps\n      Channel(s) : 2 channels\n      Channel positions : L R\n      Sampling rate : 48.0 KHz\n      Stream size : 125 MiB (12%)\n      Alignment : Split accross interleaves\n      Interleave, duration : 42 ms (1.00 video frame)\n      Interleave, preload duration : 500 ms\n\nEach part was ripped and is presented individually. The specs refer to all films assembled togheter.","torrent":{"xt":"urn:btih:ee9e2da119aa78f434245bcd7777968257426b1d","amp;dn":"Projeto+Thomaz+Farkas+2+-+Geraldo+Sarno+-+Enciclop%C3%83%C2%A9dia+Audiovis","amp;tr":["udp%3A%2F%2Ftracker.openbittorrent.com%3A80","udp%3A%2F%2Fopen.demonii.com%3A1337","udp%3A%2F%2Ftracker.coppersurfer.tk%3A6969","udp%3A%2F%2Fexodus.desync.com%3A6969"],"infoHash":"ee9e2da119aa78f434245bcd7777968257426b1d","infoHashBuffer":{"type":"Buffer","data":[238,158,45,161,25,170,120,244,52,36,91,205,119,119,150,130,87,66,107,29]},"announce":[],"urlList":[]}}